<svg xmlns="http://www.w3.org/2000/svg" width="34" height="32" viewBox="0 0 34 32" fill="none">
  <path d="M8.11111 25H14.3333H20.5556" fill="#F5EFE7"/>
  <path d="M8.11111 25H14.3333H20.5556" stroke="#4F709C" stroke-width="2" stroke-linecap="round" stroke-linejoin="round"/>
  <path d="M8.11111 19H9H9.88889" fill="#F5EFE7"/>
  <path d="M8.11111 19H9H9.88889" stroke="#4F709C" stroke-width="2" stroke-linecap="round" stroke-linejoin="round"/>
  <path d="M8.11111 13H10.7778H13.4444" fill="#F5EFE7"/>
  <path d="M8.11111 13H10.7778H13.4444" stroke="#4F709C" stroke-width="2" stroke-linecap="round" stroke-linejoin="round"/>
  <path d="M8.11111 1H25L33 7.75V26.5" fill="#F5EFE7"/>
  <path d="M8.11111 1H25L33 7.75V26.5" stroke="#4F709C" stroke-width="2" stroke-linecap="round" stroke-linejoin="round"/>
  <path d="M1 28.75V7.75C1 6.50735 2.1939 5.5 3.66667 5.5H21.0027C21.2855 5.5 21.5568 5.59481 21.7568 5.76361L27.3543 10.4864C27.5543 10.6552 27.6667 10.8841 27.6667 11.1228V28.75C27.6667 29.9926 26.4727 31 25 31H3.66667C2.1939 31 1 29.9926 1 28.75Z" fill="#F5EFE7" stroke="#4F709C" stroke-width="2" stroke-linecap="round" stroke-linejoin="round"/>
  <path d="M20.5556 5.5V10.6C20.5556 11.0971 21.0331 11.5 21.6222 11.5H27.6667" fill="#F5EFE7"/>
  <path d="M20.5556 5.5V10.6C20.5556 11.0971 21.0331 11.5 21.6222 11.5H27.6667" stroke="#4F709C" stroke-width="2" stroke-linecap="round" stroke-linejoin="round"/>
</svg>